<?xml version="1.0" encoding="utf-8"?>
<!-- Generator: Adobe Illustrator 25.2.0, SVG Export Plug-In . SVG Version: 6.00 Build 0)  -->
<svg version="1.1" id="Layer_1" xmlns="http://www.w3.org/2000/svg" xmlns:xlink="http://www.w3.org/1999/xlink" x="0px" y="0px"
	 viewBox="0 0 304.6 255.4" style="enable-background:new 0 0 304.6 255.4;" xml:space="preserve">
<style type="text/css">
	.st0{fill:#FFFFFF;}
</style>
<path class="st0" d="M136.8,187.7c0,2.9-1.1,10.1-2.8,18.7c-1.7,8.7-5.9,15.9-10.5,22.9c-4.5,6.5-10.5,11.9-17.5,15.7
	c-7.2,4-25.6,6.6-37.1,7.6c-11.8,0.5-27.3-1.1-35.7-5c-7.9-3.5-14.8-8.8-20.3-15.5c-5.1-6.3-8.8-13.5-10.8-21.3
	c-2-7.8-2.6-15.9-1.8-23.9c0.7-6.4,3.5-12.4,8-17.1c4.4-4.6,10.2-6.8,17.2-6.8c6.2,0,10.2,2,14.8,5.8c4.4,3.4,6.9,8.7,6.8,14.3
	c0,4.8-1.6,11-4.9,14.5s-5.9,5.9-10.6,7.2c-0.7,0.3-1.5,0.4-2.2,0.4c-8.7,0.1-8.4,2-8.9,4c0.2,1.6,1.6,4.6,4.5,9.5
	s7.6,8.9,13.9,12.3s13.8,4.4,22.3,3c5.3-0.8,10.3-2.9,14.6-6c3.8-2.9,8.9-5.6,11.3-10s2.7-4.7,3.8-10.3c0.8-4.6,1.4-9.3,1.8-14V88.6
	c0-4-0.7-6.9-2-8.6c-1-1.5-2.5-2.7-4.2-3.4c-1.7-0.5-3.6-0.5-5.3,0V58.9c1.9-1.2,7.3-1,11.6,2.6c1.6,1.4,3.1,4.9,3.2,8.7
	c1.2,2.2,41.2,75.3,41.2,75.3S136.8,184.8,136.8,187.7z"/>
<path class="st0" d="M96.8,21.5c0-3.7-1-6.4-2.9-8.2c-1.7-1.6-3.6-2.7-5.8-3.4c-2.7-0.5-5.5-0.5-8.1,0V0h59.3l102.9,190.8V21.5
	c0-3.7-1-6.4-2.9-8.2c-1.7-1.6-3.6-2.7-5.8-3.4c-2.7-0.5-5.5-0.5-8.1,0V0h79.4v9.9c-2.9-0.5-5.8-0.5-8.7,0c-2.1,0.6-4,1.8-5.5,3.4
	c-1.7,1.7-2.6,4.4-2.6,8.2V233h-77.1L96.8,21.5z"/>
<rect x="204.3" y="241.4" class="st0" width="88.7" height="14"/>
</svg>
